<?xml version="1.0" encoding="UTF-8"?>
<svg id="xxxx" xmlns="http://www.w3.org/2000/svg" viewBox="0 0 340 61">
  <defs>
    <style>
      .cls-1, .cls-2, .cls-3 {
        stroke-width: 0px;
      }

      .cls-1, .cls-3 {
        fill: #8c034e;
      }

      .cls-2 {
        fill: #ef8621;
      }

      .cls-3 {
        fill-rule: evenodd;
      }
    </style>
  </defs>
  <g>
    <g>
      <path fill="#8c034e" stroke-width="0px" d="M34.41,17.67c0,8.84-6.63,14.34-17.23,14.34h-7.99v10.94H0V3.27h17.17c10.6,0,17.23,5.5,17.23,14.4ZM25.11,17.67c0-4.36-2.83-6.92-8.45-6.92h-7.48v13.77h7.48c5.61,0,8.45-2.55,8.45-6.86Z"/>
      <path fill="#8c034e" stroke-width="0px" d="M67.79,12.45v30.49h-8.45v-3.51c-2.21,2.66-5.44,3.97-9.52,3.97-8.62,0-15.25-6.12-15.25-15.7s6.63-15.7,15.25-15.7c3.74,0,6.91,1.19,9.13,3.68v-3.23h8.84ZM59.12,27.7c0-5.27-3.4-8.45-7.77-8.45s-7.82,3.17-7.82,8.45,3.4,8.44,7.82,8.44,7.77-3.17,7.77-8.44Z"/>
      <path fill="#8c034e" stroke-width="0px" d="M91.48,12v8.16c-.74-.06-1.3-.11-1.98-.11-4.88,0-8.11,2.66-8.11,8.5v14.4h-8.84V12.45h8.45v4.02c2.15-2.95,5.78-4.48,10.49-4.48Z"/>
      <path fill="#8c034e" stroke-width="0px" d="M106.45,30.99l-4.25,4.19v7.77h-8.84V.89h8.84v23.81l12.92-12.24h10.54l-12.7,12.92,13.83,17.57h-10.71l-9.64-11.96Z"/>
    </g>
    <path fill="#8c034e" fill-rule="evenodd" stroke-width="0px" d="M164.88,12.07c-8.84-8.84-23.18-8.84-32.02,0-8.84,8.84-8.84,23.18,0,32.02l13,13c1.79,1.79,3.02,3.02,3.02,3.02l6.12-6.12,9.9-9.9c8.84-8.84,8.84-23.18,0-32.02ZM159.76,38.99l-10.9,10.9-10.9-10.9c-2.91-2.91-4.51-6.78-4.51-10.9s1.6-7.99,4.51-10.9c2.91-2.91,6.78-4.51,10.9-4.51s7.99,1.6,10.9,4.51c6.01,6.01,6.01,15.79,0,21.8Z"/>
    <g>
      <path fill="#8c034e" stroke-width="0px" d="M148.86,11.52c-.86,0-1.55.7-1.55,1.55v2.51c0,.86.7,1.55,1.55,1.55s1.55-.7,1.55-1.55v-2.51c0-.86-.7-1.55-1.55-1.55Z"/>
      <path fill="#8c034e" stroke-width="0px" d="M137.89,28.11c0-.86-.7-1.55-1.55-1.55h-2.51c-.86,0-1.55.7-1.55,1.55s.7,1.55,1.55,1.55h2.51c.86,0,1.55-.7,1.55-1.55Z"/>
      <path fill="#8c034e" stroke-width="0px" d="M138.23,37.19c-.41,0-.8.16-1.1.46-.29.29-.45.68-.45,1.1s.16.8.45,1.1.68.45,1.1.45.8-.16,1.1-.45c.61-.61.61-1.59,0-2.2-.29-.29-.68-.46-1.1-.46Z"/>
      <path fill="#8c034e" stroke-width="0px" d="M138.23,15.92c-.41,0-.8.16-1.1.45-.29.29-.45.68-.45,1.1s.16.8.45,1.1c.29.29.68.45,1.1.45s.8-.16,1.1-.45c.61-.61.61-1.59,0-2.2-.29-.29-.68-.45-1.1-.45Z"/>
      <path fill="#8c034e" stroke-width="0px" d="M148.86,39.09c-.86,0-1.55.7-1.55,1.55v9.74c0,.86.7,1.55,1.55,1.55s1.55-.7,1.55-1.55v-9.74c0-.86-.7-1.55-1.55-1.55Z"/>
      <path fill="#8c034e" stroke-width="0px" d="M159.5,37.19c-.41,0-.8.16-1.1.46-.6.61-.6,1.59,0,2.2.29.29.68.45,1.1.45s.8-.16,1.1-.45c.6-.61.6-1.59,0-2.2-.29-.29-.68-.46-1.1-.46Z"/>
      <path fill="#8c034e" stroke-width="0px" d="M163.9,26.56h-2.51c-.86,0-1.55.7-1.55,1.55s.7,1.55,1.55,1.55h2.51c.86,0,1.55-.7,1.55-1.55s-.7-1.55-1.55-1.55Z"/>
    </g>
  </g>
  <g>
    <g>
      <path fill="#ef8621" stroke-width="0px" d="M175.01,28.31c0-9.23,7.13-15.78,17.1-15.78,6.44,0,11.51,2.79,13.74,7.8l-6.9,3.7c-1.65-2.91-4.1-4.22-6.9-4.22-4.5,0-8.04,3.13-8.04,8.49s3.53,8.49,8.04,8.49c2.79,0,5.24-1.25,6.9-4.22l6.9,3.76c-2.22,4.9-7.3,7.75-13.74,7.75-9.98,0-17.1-6.55-17.1-15.78Z"/>
      <path fill="#ef8621" stroke-width="0px" d="M238.71,26.08v17.54h-8.89v-16.18c0-4.96-2.28-7.23-6.21-7.23-4.27,0-7.35,2.62-7.35,8.26v15.15h-8.89V1.36h8.89v14.81c2.39-2.39,5.81-3.65,9.75-3.65,7.24,0,12.71,4.22,12.71,13.56Z"/>
      <path fill="#ef8621" stroke-width="0px" d="M265.65,34l4.73,5.13c-2.85,3.25-7.13,4.96-12.65,4.96-10.6,0-17.5-6.66-17.5-15.78s6.95-15.78,16.42-15.78c8.66,0,15.79,5.7,15.85,15.49l-22.69,4.39c1.31,3.02,4.16,4.56,8.15,4.56,3.25,0,5.59-.97,7.7-2.96ZM248.95,27.39l14.93-2.91c-.86-3.13-3.53-5.24-7.24-5.24-4.45,0-7.52,2.96-7.7,8.15Z"/>
      <path fill="#ef8621" stroke-width="0px" d="M274.01,28.31c0-9.23,7.13-15.78,17.1-15.78,6.44,0,11.51,2.79,13.74,7.8l-6.9,3.7c-1.65-2.91-4.1-4.22-6.9-4.22-4.5,0-8.04,3.13-8.04,8.49s3.53,8.49,8.04,8.49c2.79,0,5.24-1.25,6.9-4.22l6.9,3.76c-2.22,4.9-7.3,7.75-13.74,7.75-9.98,0-17.1-6.55-17.1-15.78Z"/>
      <path fill="#ef8621" stroke-width="0px" d="M319.54,31.61l-4.27,4.22v7.8h-8.89V1.36h8.89v23.92l13-12.3h10.6l-12.77,12.99,13.91,17.66h-10.77l-9.69-12.02Z"/>
    </g>
    <g>
      <path fill="#ef8621" stroke-width="0px" d="M160.59,16.38c-.29-.29-.68-.45-1.1-.45s-.8.16-1.1.45c-.6.61-.6,1.59,0,2.2.29.29.68.45,1.1.45s.8-.16,1.1-.45c.29-.29.46-.68.46-1.1s-.16-.8-.46-1.1Z"/>
      <path fill="#ef8621" stroke-width="0px" d="M156.42,19.12c-.46,0-.9.18-1.23.51l-6.34,6.34-3.31-3.31c-.33-.33-.77-.51-1.23-.51s-.9.18-1.23.51c-.33.33-.51.77-.51,1.23s.18.9.51,1.23l4.54,4.54c.33.33.76.51,1.23.51s.9-.18,1.23-.51l7.57-7.57c.33-.33.51-.76.51-1.23,0-.46-.18-.9-.51-1.23-.33-.33-.77-.51-1.23-.51Z"/>
    </g>
  </g>
</svg>