<?xml version="1.0" encoding="utf-8"?>
<!-- Generator: Adobe Illustrator 26.3.1, SVG Export Plug-In . SVG Version: 6.00 Build 0)  -->
<svg version="1.1" id="Layer_1" xmlns="http://www.w3.org/2000/svg" xmlns:xlink="http://www.w3.org/1999/xlink" x="0px" y="0px"
	 viewBox="0 0 1442 386" style="enable-background:new 0 0 1442 386;" xml:space="preserve">
<style type="text/css">
	.st0{fill:#8C034E;}
	.st1{fill:#F28705;}
	.st2{fill-rule:evenodd;clip-rule:evenodd;fill:#8C034E;}
	.st3{fill-rule:evenodd;clip-rule:evenodd;fill:#F28705;}
</style>
<g>
	<g>
		<path class="st0" d="M246.7,70.4c13.2,6,23.3,14.4,30.4,25.4c7.1,11,10.7,23.9,10.7,38.9c0,14.8-3.6,27.7-10.7,38.8
			c-7.1,11.1-17.3,19.5-30.4,25.4c-13.2,5.9-28.7,8.8-46.6,8.8h-40.7v55.7h-46.7V61.4h87.4C218,61.4,233.5,64.4,246.7,70.4z
			 M229.6,160.5c7.3-6.1,11-14.7,11-25.8c0-11.3-3.7-20-11-26.1c-7.3-6.1-18-9.1-32-9.1h-38.1v70.1h38.1
			C211.6,169.6,222.3,166.5,229.6,160.5z"/>
		<path class="st0" d="M457.7,108.1v155.2h-43v-17.9c-11.2,13.5-27.3,20.2-48.5,20.2c-14.6,0-27.8-3.3-39.7-9.8
			c-11.8-6.5-21.1-15.9-27.8-28c-6.7-12.1-10.1-26.1-10.1-42.1c0-16,3.4-30,10.1-42.1c6.7-12.1,16-21.4,27.8-28
			c11.8-6.5,25-9.8,39.7-9.8c19.8,0,35.3,6.3,46.4,18.7v-16.4H457.7z M402.3,217c7.5-7.8,11.2-18.2,11.2-31.3
			c0-13.1-3.7-23.5-11.2-31.3s-16.9-11.7-28.3-11.7c-11.5,0-21.1,3.9-28.6,11.7s-11.2,18.2-11.2,31.3c0,13.1,3.7,23.5,11.2,31.3
			c7.5,7.8,17,11.7,28.6,11.7C385.4,228.7,394.8,224.8,402.3,217z"/>
		<path class="st0" d="M546.7,111.6c9.1-3.8,19.7-5.8,31.6-5.8v41.5c-5-0.4-8.4-0.6-10.1-0.6c-12.9,0-23,3.6-30.3,10.8
			c-7.3,7.2-11,18-11,32.4v73.3h-45V108.1h43v20.5C530.3,121.1,537.5,115.4,546.7,111.6z"/>
		<path class="st0" d="M654.4,202.4l-21.6,21.3v39.5h-45v-214h45v121.1l65.8-62.3h53.6l-64.6,65.8l70.4,89.4h-54.5L654.4,202.4z"/>
	</g>
	<g>
		<path class="st1" d="M1003.3,256.6c-5.4-5.4-8.1-12.1-8.1-20.2c0-8.3,2.7-14.9,8.1-20c5.4-5.1,12-7.6,19.9-7.6
			c7.9,0,14.5,2.6,19.9,7.6c5.4,5.1,8.1,11.8,8.1,20c0,8.1-2.7,14.8-8.1,20.2c-5.4,5.4-12,8.1-19.9,8.1
			C1015.4,264.6,1008.7,262,1003.3,256.6z"/>
		<path class="st1" d="M1237.2,107.2v155.2h-43v-17.9c-11.2,13.5-27.3,20.2-48.5,20.2c-14.6,0-27.8-3.3-39.7-9.8
			c-11.8-6.5-21.1-15.9-27.8-28c-6.7-12.1-10.1-26.1-10.1-42.1c0-16,3.4-30,10.1-42.1c6.7-12.1,16-21.4,27.8-28
			c11.8-6.5,25-9.8,39.7-9.8c19.8,0,35.3,6.3,46.4,18.7v-16.4H1237.2z M1181.9,216c7.5-7.8,11.2-18.2,11.2-31.3
			c0-13.1-3.7-23.5-11.2-31.3c-7.5-7.8-16.9-11.7-28.3-11.7c-11.5,0-21.1,3.9-28.6,11.7c-7.5,7.8-11.2,18.2-11.2,31.3
			c0,13.1,3.7,23.5,11.2,31.3c7.5,7.8,17,11.7,28.6,11.7C1165,227.7,1174.4,223.8,1181.9,216z"/>
		<path class="st1" d="M1281.1,78.3c-5.2-4.8-7.8-10.8-7.8-17.9c0-7.1,2.6-13.1,7.8-17.9c5.2-4.8,11.9-7.2,20.2-7.2
			c8.3,0,15,2.3,20.2,6.9c5.2,4.6,7.8,10.4,7.8,17.3c0,7.5-2.6,13.7-7.8,18.6c-5.2,4.9-11.9,7.4-20.2,7.4
			C1293,85.5,1286.3,83.1,1281.1,78.3z M1278.8,107.2h45v155.2h-45V107.2z"/>
	</g>
	<g>
		<g>
			<path class="st2" d="M901.4,319.5l50.3-50.3c45-45,45-118,0-162.9s-118-45-162.9,0c-45,45-45,118,0,162.9l66.1,66.1
				c9.1,9.1,15.4,15.4,15.4,15.4L901.4,319.5z M920.6,238l-35.3,35.3c-8.6,8.6-15,15-15,15L819.9,238c-27.8-27.8-27.8-72.9,0-100.7
				c27.8-27.8,72.9-27.8,100.7,0C948.4,165.2,948.4,210.2,920.6,238z"/>
			<path class="st3" d="M901.4,156.6c17.2,17.2,17.2,45.1,0,62.2c-10,10-31.1,31.1-31.1,31.1s-23.9-23.9-31.1-31.1
				c-17.2-17.2-17.2-45.1,0-62.2S884.2,139.4,901.4,156.6z"/>
		</g>
	</g>
</g>
</svg>
